<mxfile host="app.diagrams.net" modified="2024-06-17T07:05:58.729Z" agent="Mozilla/5.0 (Windows NT 10.0; Win64; x64) AppleWebKit/537.36 (KHTML, like Gecko) Chrome/126.0.0.0 Safari/537.36 Edg/126.0.0.0" etag="SZL7jhPVuDEkJiMRQ9Oj" version="24.5.4" type="device">
  <diagram name="Page-1" id="i97s15vKfjkiYvQXZSA1">
    <mxGraphModel dx="1229" dy="751" grid="1" gridSize="10" guides="1" tooltips="1" connect="1" arrows="1" fold="1" page="1" pageScale="1" pageWidth="850" pageHeight="1100" math="0" shadow="0">
      <root>
        <mxCell id="0" />
        <mxCell id="1" parent="0" />
        <mxCell id="BLQ_r1hsJ8umTMcjwfja-29" style="edgeStyle=orthogonalEdgeStyle;rounded=0;orthogonalLoop=1;jettySize=auto;html=1;dashed=1;fillColor=#008a00;strokeColor=#005700;endArrow=none;endFill=0;" parent="1" source="BLQ_r1hsJ8umTMcjwfja-1" target="BLQ_r1hsJ8umTMcjwfja-2" edge="1">
          <mxGeometry relative="1" as="geometry" />
        </mxCell>
        <mxCell id="BLQ_r1hsJ8umTMcjwfja-1" value="Active Directory&lt;br&gt;IP: 10.0.2.7&lt;br&gt;Splunk Universal Forwarder&lt;br&gt;Sysmon" style="sketch=0;outlineConnect=0;fontColor=#232F3E;gradientColor=none;fillColor=#232F3D;strokeColor=none;dashed=0;verticalLabelPosition=bottom;verticalAlign=top;align=center;html=1;fontSize=12;fontStyle=0;aspect=fixed;pointerEvents=1;shape=mxgraph.aws4.traditional_server;" parent="1" vertex="1">
          <mxGeometry x="690" y="156" width="45" height="78" as="geometry" />
        </mxCell>
        <mxCell id="BLQ_r1hsJ8umTMcjwfja-2" value="Splunk Server&lt;br&gt;IP: 10.0.2.10" style="sketch=0;outlineConnect=0;fontColor=#232F3E;gradientColor=none;fillColor=#232F3D;strokeColor=none;dashed=0;verticalLabelPosition=bottom;verticalAlign=top;align=center;html=1;fontSize=12;fontStyle=0;aspect=fixed;pointerEvents=1;shape=mxgraph.aws4.traditional_server;" parent="1" vertex="1">
          <mxGeometry x="690" y="483.5" width="45" height="78" as="geometry" />
        </mxCell>
        <mxCell id="BLQ_r1hsJ8umTMcjwfja-24" style="rounded=0;orthogonalLoop=1;jettySize=auto;html=1;dashed=1;exitX=0.98;exitY=0.02;exitDx=0;exitDy=0;exitPerimeter=0;endArrow=none;endFill=0;fillColor=#1ba1e2;strokeColor=#006EAF;" parent="1" source="BLQ_r1hsJ8umTMcjwfja-3" target="BLQ_r1hsJ8umTMcjwfja-2" edge="1">
          <mxGeometry relative="1" as="geometry" />
        </mxCell>
        <mxCell id="BLQ_r1hsJ8umTMcjwfja-3" value="Windows 10&lt;div&gt;IP: DHCP&lt;br&gt;Splunk Universal Forwarder&lt;/div&gt;&lt;div&gt;Sysmon&lt;/div&gt;&lt;div&gt;Atomic Red Team&lt;/div&gt;" style="verticalLabelPosition=bottom;html=1;verticalAlign=top;align=center;strokeColor=#006EAF;fillColor=#1ba1e2;shape=mxgraph.azure.computer;pointerEvents=1;fontColor=#000000;labelBackgroundColor=none;" parent="1" vertex="1">
          <mxGeometry x="420" y="500" width="50" height="45" as="geometry" />
        </mxCell>
        <mxCell id="BLQ_r1hsJ8umTMcjwfja-4" value="Kali Linux&lt;div&gt;IP: 10.0.2.4&lt;/div&gt;" style="verticalLabelPosition=bottom;html=1;verticalAlign=top;align=center;strokeColor=#B20000;fillColor=#e51400;shape=mxgraph.azure.computer;pointerEvents=1;fontColor=#000000;" parent="1" vertex="1">
          <mxGeometry x="170" y="352.5" width="50" height="45" as="geometry" />
        </mxCell>
        <mxCell id="BLQ_r1hsJ8umTMcjwfja-6" value="" style="sketch=0;points=[[0.015,0.015,0],[0.985,0.015,0],[0.985,0.985,0],[0.015,0.985,0],[0.25,0,0],[0.5,0,0],[0.75,0,0],[1,0.25,0],[1,0.5,0],[1,0.75,0],[0.75,1,0],[0.5,1,0],[0.25,1,0],[0,0.75,0],[0,0.5,0],[0,0.25,0]];verticalLabelPosition=bottom;html=1;verticalAlign=top;aspect=fixed;align=center;pointerEvents=1;shape=mxgraph.cisco19.rect;prIcon=l2_switch;fillColor=#FAFAFA;strokeColor=#005073;" parent="1" vertex="1">
          <mxGeometry x="420" y="350" width="50" height="50" as="geometry" />
        </mxCell>
        <mxCell id="BLQ_r1hsJ8umTMcjwfja-7" value="" style="sketch=0;points=[[0.5,0,0],[1,0.5,0],[0.5,1,0],[0,0.5,0],[0.145,0.145,0],[0.8555,0.145,0],[0.855,0.8555,0],[0.145,0.855,0]];verticalLabelPosition=bottom;html=1;verticalAlign=top;aspect=fixed;align=center;pointerEvents=1;shape=mxgraph.cisco19.rect;prIcon=router;fillColor=#FAFAFA;strokeColor=#005073;" parent="1" vertex="1">
          <mxGeometry x="420" y="170" width="50" height="50" as="geometry" />
        </mxCell>
        <mxCell id="BLQ_r1hsJ8umTMcjwfja-8" value="Internet" style="ellipse;shape=cloud;whiteSpace=wrap;html=1;" parent="1" vertex="1">
          <mxGeometry x="385" y="20" width="120" height="80" as="geometry" />
        </mxCell>
        <mxCell id="BLQ_r1hsJ8umTMcjwfja-14" style="edgeStyle=orthogonalEdgeStyle;rounded=0;orthogonalLoop=1;jettySize=auto;html=1;entryX=0.5;entryY=1;entryDx=0;entryDy=0;entryPerimeter=0;" parent="1" source="BLQ_r1hsJ8umTMcjwfja-6" target="BLQ_r1hsJ8umTMcjwfja-7" edge="1">
          <mxGeometry relative="1" as="geometry" />
        </mxCell>
        <mxCell id="BLQ_r1hsJ8umTMcjwfja-16" style="rounded=0;orthogonalLoop=1;jettySize=auto;html=1;entryX=1;entryY=0.5;entryDx=0;entryDy=0;entryPerimeter=0;" parent="1" source="BLQ_r1hsJ8umTMcjwfja-2" target="BLQ_r1hsJ8umTMcjwfja-6" edge="1">
          <mxGeometry relative="1" as="geometry" />
        </mxCell>
        <mxCell id="BLQ_r1hsJ8umTMcjwfja-17" style="rounded=0;orthogonalLoop=1;jettySize=auto;html=1;entryX=1;entryY=0.5;entryDx=0;entryDy=0;entryPerimeter=0;" parent="1" source="BLQ_r1hsJ8umTMcjwfja-1" target="BLQ_r1hsJ8umTMcjwfja-6" edge="1">
          <mxGeometry relative="1" as="geometry" />
        </mxCell>
        <mxCell id="BLQ_r1hsJ8umTMcjwfja-21" value="&lt;div&gt;&lt;span style=&quot;background-color: initial;&quot;&gt;Network: 10.0.2.0/24&lt;/span&gt;&lt;br&gt;&lt;/div&gt;&lt;div&gt;Splunk Server: 10.0.2.15&lt;/div&gt;&lt;div&gt;Active Directory Server: 10.0.2.7&lt;/div&gt;&lt;div&gt;Attacker: 10.0.2.4&lt;/div&gt;" style="text;html=1;align=center;verticalAlign=middle;resizable=0;points=[];autosize=1;strokeColor=none;fillColor=none;" parent="1" vertex="1">
          <mxGeometry x="95" y="130" width="200" height="70" as="geometry" />
        </mxCell>
        <mxCell id="BLQ_r1hsJ8umTMcjwfja-23" style="edgeStyle=orthogonalEdgeStyle;rounded=0;orthogonalLoop=1;jettySize=auto;html=1;entryX=0.5;entryY=0;entryDx=0;entryDy=0;entryPerimeter=0;" parent="1" source="BLQ_r1hsJ8umTMcjwfja-8" target="BLQ_r1hsJ8umTMcjwfja-7" edge="1">
          <mxGeometry relative="1" as="geometry" />
        </mxCell>
        <mxCell id="BLQ_r1hsJ8umTMcjwfja-31" style="edgeStyle=orthogonalEdgeStyle;rounded=0;orthogonalLoop=1;jettySize=auto;html=1;entryX=0;entryY=0.5;entryDx=0;entryDy=0;entryPerimeter=0;" parent="1" source="BLQ_r1hsJ8umTMcjwfja-4" target="BLQ_r1hsJ8umTMcjwfja-6" edge="1">
          <mxGeometry relative="1" as="geometry" />
        </mxCell>
        <mxCell id="BLQ_r1hsJ8umTMcjwfja-32" style="edgeStyle=orthogonalEdgeStyle;rounded=0;orthogonalLoop=1;jettySize=auto;html=1;entryX=0.5;entryY=1;entryDx=0;entryDy=0;entryPerimeter=0;" parent="1" source="BLQ_r1hsJ8umTMcjwfja-3" target="BLQ_r1hsJ8umTMcjwfja-6" edge="1">
          <mxGeometry relative="1" as="geometry" />
        </mxCell>
      </root>
    </mxGraphModel>
  </diagram>
</mxfile>
